<svg width="405" height="512" viewBox="0 0 405 512" fill="none" xmlns="http://www.w3.org/2000/svg">
<path d="M208.734 136.531C219.844 136.531 229.231 143.69 232.764 153.597H321.237C324.77 143.69 334.157 136.531 345.267 136.531C359.381 136.531 370.867 148.017 370.867 162.131C370.867 176.245 359.381 187.73 345.267 187.73C334.157 187.73 324.77 180.571 321.237 170.664H232.755C229.222 180.571 219.836 187.73 208.725 187.73C194.611 187.73 183.125 176.245 183.125 162.131C183.125 148.017 194.62 136.531 208.734 136.531ZM345.267 170.664C349.969 170.664 353.8 166.841 353.8 162.131C353.8 157.42 349.969 153.597 345.267 153.597C340.565 153.597 336.734 157.42 336.734 162.131C336.734 166.841 340.565 170.664 345.267 170.664ZM208.734 170.664C213.436 170.664 217.267 166.841 217.267 162.131C217.267 157.42 213.436 153.597 208.734 153.597C204.032 153.597 200.2 157.42 200.2 162.131C200.2 166.841 204.032 170.664 208.734 170.664Z" fill="#00B2FF"/>
<path d="M140.467 189.3V136.531C140.467 134.261 141.363 132.094 142.967 130.498L177.1 96.3653C178.696 94.7611 180.872 93.8651 183.134 93.8651H210.304C213.836 83.9581 223.223 76.7987 234.334 76.7987C248.448 76.7987 259.934 88.2844 259.934 102.398C259.934 116.512 248.448 127.998 234.334 127.998C223.223 127.998 213.836 120.839 210.304 110.931H186.666L157.534 140.064V189.3C167.441 192.833 174.6 202.22 174.6 213.33C174.6 227.444 163.114 238.929 149 238.929C134.886 238.929 123.4 227.444 123.4 213.33C123.4 202.22 130.56 192.833 140.467 189.3ZM234.334 110.931C239.035 110.931 242.867 107.109 242.867 102.398C242.867 97.688 239.035 93.8651 234.334 93.8651C229.632 93.8651 225.8 97.688 225.8 102.398C225.8 107.109 229.632 110.931 234.334 110.931ZM149 221.863C153.702 221.863 157.534 218.04 157.534 213.33C157.534 208.619 153.702 204.797 149 204.797C144.298 204.797 140.467 208.619 140.467 213.33C140.467 218.04 144.298 221.863 149 221.863Z" fill="#00B2FF"/>
<path d="M-13.1332 221.863C-9.19085 221.863 -5.50445 222.827 -2.16792 224.431L12.4668 209.797V127.998C12.4668 125.728 13.3627 123.561 14.967 121.965L100.369 36.5647C98.7643 33.2282 97.8001 29.5419 97.8001 25.5996C97.8001 11.4857 109.286 0 123.4 0C137.514 0 149 11.4857 149 25.5996C149 39.7135 137.514 51.1992 123.4 51.1992C119.458 51.1992 115.771 50.2349 112.435 48.6307L29.5334 131.531V213.33C29.5334 215.6 28.6374 217.767 27.0332 219.363L9.89823 236.497C11.5025 239.834 12.4668 243.52 12.4668 247.463C12.4668 261.576 0.980885 273.062 -13.1332 273.062C-27.2474 273.062 -38.7332 261.576 -38.7332 247.463C-38.7332 233.349 -27.2474 221.863 -13.1332 221.863ZM123.4 34.1328C128.102 34.1328 131.933 30.3099 131.933 25.5996C131.933 20.8893 128.102 17.0664 123.4 17.0664C118.698 17.0664 114.867 20.8893 114.867 25.5996C114.867 30.3099 118.698 34.1328 123.4 34.1328ZM-13.1332 255.996C-8.43138 255.996 -4.59991 252.173 -4.59991 247.463C-4.59991 242.752 -8.43138 238.929 -13.1332 238.929C-17.8351 238.929 -21.6666 242.752 -21.6666 247.463C-21.6666 252.173 -17.8351 255.996 -13.1332 255.996Z" fill="#00B2FF"/>
<path d="M-89.933 121.035V85.3319C-89.933 83.0621 -89.037 80.8947 -87.4328 79.299L-27.6994 19.5666C-26.1037 17.9624 -23.9277 17.0664 -21.6664 17.0664H22.5704C26.1032 7.15935 35.4899 0 46.6003 0C60.7144 0 72.2003 11.4857 72.2003 25.5996C72.2003 39.7135 60.7144 51.1992 46.6003 51.1992C35.4899 51.1992 26.1032 44.0398 22.5704 34.1328H-18.1336L-72.8664 88.8647V121.035C-62.9592 124.568 -55.7997 133.954 -55.7997 145.064C-55.7997 159.178 -67.2856 170.664 -81.3997 170.664C-95.5138 170.664 -107 159.178 -107 145.064C-107 133.954 -99.8402 124.568 -89.933 121.035ZM46.6003 34.1328C51.3022 34.1328 55.1336 30.3099 55.1336 25.5996C55.1336 20.8893 51.3022 17.0664 46.6003 17.0664C41.8984 17.0664 38.067 20.8893 38.067 25.5996C38.067 30.3099 41.8984 34.1328 46.6003 34.1328ZM-81.3997 153.597C-76.6978 153.597 -72.8664 149.775 -72.8664 145.064C-72.8664 140.354 -76.6978 136.531 -81.3997 136.531C-86.1016 136.531 -89.933 140.354 -89.933 145.064C-89.933 149.775 -86.1016 153.597 -81.3997 153.597Z" fill="#00B2FF"/>
<path d="M29.525 462.371V339.758C19.6264 336.225 12.4669 326.838 12.4669 315.728C12.4669 301.614 23.9528 290.129 38.0669 290.129C49.1773 290.129 58.564 297.288 62.0968 307.195H150.57C154.103 297.288 163.49 290.129 174.6 290.129C185.711 290.129 195.097 297.288 198.63 307.195H247.867L279.569 275.494C277.964 272.158 277 268.471 277 264.529C277 250.415 288.486 238.93 302.6 238.93C316.714 238.93 328.2 250.415 328.2 264.529C328.2 278.643 316.714 290.129 302.6 290.129C298.658 290.129 294.971 289.164 291.635 287.56L257.433 321.761C255.838 323.365 253.662 324.261 251.4 324.261H198.63C195.097 334.169 185.711 341.328 174.6 341.328C163.49 341.328 154.103 334.169 150.57 324.261H62.0882C59.5112 331.489 53.8194 337.181 46.5917 339.758V462.371C56.4989 465.904 63.6584 475.29 63.6584 486.401C63.6584 500.515 52.1725 512 38.0584 512C23.9442 512 12.4584 500.515 12.4584 486.401C12.4584 475.29 19.6178 465.904 29.525 462.371ZM302.6 273.062C307.302 273.062 311.134 269.239 311.134 264.529C311.134 259.819 307.302 255.996 302.6 255.996C297.898 255.996 294.067 259.819 294.067 264.529C294.067 269.239 297.898 273.062 302.6 273.062ZM174.6 324.261C179.302 324.261 183.134 320.439 183.134 315.728C183.134 311.018 179.302 307.195 174.6 307.195C169.898 307.195 166.067 311.018 166.067 315.728C166.067 320.439 169.898 324.261 174.6 324.261ZM38.0669 494.925C42.7688 494.925 46.6002 491.102 46.6002 486.392C46.6002 481.682 42.7688 477.859 38.0669 477.859C33.365 477.859 29.5336 481.682 29.5336 486.392C29.5336 491.102 33.365 494.925 38.0669 494.925ZM38.0669 324.261C42.7688 324.261 46.6002 320.439 46.6002 315.728C46.6002 311.018 42.7688 307.195 38.0669 307.195C33.365 307.195 29.5336 311.018 29.5336 315.728C29.5336 320.439 33.365 324.261 38.0669 324.261Z" fill="#00B2FF"/>
<path d="M72.2 172.234V145.064C72.2 142.794 73.096 140.627 74.7003 139.031L177.169 36.5647C175.564 33.2282 174.6 29.5419 174.6 25.5996C174.6 11.4857 186.086 0 200.2 0C211.31 0 220.697 7.15935 224.23 17.0664H259.933C264.644 17.0664 268.467 20.8807 268.467 25.5996V47.6664L300.168 79.3672C303.505 77.763 307.191 76.7987 311.133 76.7987C325.248 76.7987 336.733 88.2844 336.733 102.398C336.733 116.512 325.248 127.998 311.133 127.998C297.019 127.998 285.533 116.512 285.533 102.398C285.533 98.456 286.498 94.7696 288.102 91.4332L253.9 57.2321C252.296 55.6364 251.4 53.469 251.4 51.1992V34.1328H224.23C220.697 44.0398 211.31 51.1992 200.2 51.1992C196.258 51.1992 192.571 50.2349 189.235 48.6307L89.2667 148.597V172.234C99.1739 175.767 106.333 185.153 106.333 196.263C106.333 210.377 94.8475 221.863 80.7333 221.863C66.6192 221.863 55.1333 210.377 55.1333 196.263C55.1333 185.153 62.2928 175.767 72.2 172.234ZM311.133 110.931C315.835 110.931 319.667 107.109 319.667 102.398C319.667 97.688 315.835 93.8651 311.133 93.8651C306.432 93.8651 302.6 97.688 302.6 102.398C302.6 107.109 306.432 110.931 311.133 110.931ZM200.2 34.1328C204.902 34.1328 208.733 30.3099 208.733 25.5996C208.733 20.8893 204.902 17.0664 200.2 17.0664C195.498 17.0664 191.667 20.8893 191.667 25.5996C191.667 30.3099 195.498 34.1328 200.2 34.1328ZM80.7333 204.797C85.4352 204.797 89.2667 200.974 89.2667 196.263C89.2667 191.553 85.4352 187.73 80.7333 187.73C76.0315 187.73 72.2 191.553 72.2 196.263C72.2 200.974 76.0315 204.797 80.7333 204.797Z" fill="#00B2FF"/>
<path d="M97.7999 238.929C108.91 238.929 118.297 246.089 121.83 255.996H222.267L270.967 207.297C272.563 205.693 274.739 204.797 277 204.797H367.334L387.933 184.197V114.464L322.099 48.6307C318.762 50.2349 315.076 51.1992 311.133 51.1992C297.019 51.1992 285.533 39.7135 285.533 25.5996C285.533 11.4857 297.019 0 311.133 0C325.247 0 336.733 11.4857 336.733 25.5996C336.733 29.5419 335.769 33.2282 334.165 36.5647L402.5 104.899C404.104 106.494 405 108.662 405 110.931V187.73C405 190 404.104 192.167 402.5 193.763L376.9 219.363C375.304 220.967 373.128 221.863 370.867 221.863H280.533L231.833 270.562C230.237 272.166 228.061 273.062 225.8 273.062H121.83C118.297 282.969 108.91 290.129 97.7999 290.129C83.6858 290.129 72.1999 278.643 72.1999 264.529C72.1999 250.415 83.6858 238.929 97.7999 238.929ZM311.133 17.0664C306.431 17.0664 302.6 20.8893 302.6 25.5996C302.6 30.3099 306.431 34.1328 311.133 34.1328C315.835 34.1328 319.667 30.3099 319.667 25.5996C319.667 20.8893 315.835 17.0664 311.133 17.0664ZM97.7999 273.062C102.502 273.062 106.333 269.239 106.333 264.529C106.333 259.819 102.502 255.996 97.7999 255.996C93.0981 255.996 89.2666 259.819 89.2666 264.529C89.2666 269.239 93.0981 273.062 97.7999 273.062Z" fill="#00B2FF"/>
<path d="M-81.3999 204.797C-77.4575 204.797 -73.7711 205.761 -70.4346 207.365L-38.7333 175.664V126.428C-48.6405 122.895 -55.7999 113.509 -55.7999 102.398C-55.7999 88.2844 -44.3141 76.7987 -30.1999 76.7987C-16.0858 76.7987 -4.59993 88.2844 -4.59993 102.398C-4.59993 113.509 -11.7594 122.895 -21.6666 126.428V179.197C-21.6666 181.467 -22.5626 183.634 -24.1669 185.23L-58.3684 219.431C-56.7642 222.767 -55.7999 226.454 -55.7999 230.396C-55.7999 241.506 -62.9594 250.893 -72.8666 254.426V260.996L-7.10019 326.761C-5.49592 328.357 -4.59993 330.525 -4.59993 332.794V342.898C5.30727 346.43 12.4667 355.817 12.4667 366.927C12.4667 378.037 5.30727 387.424 -4.59993 390.957V411.172C5.30727 414.705 12.4667 424.091 12.4667 435.201C12.4667 449.315 0.98087 460.801 -13.1333 460.801C-27.2474 460.801 -38.7333 449.315 -38.7333 435.201C-38.7333 424.091 -31.5738 414.705 -21.6666 411.172V390.957C-31.5738 387.424 -38.7333 378.037 -38.7333 366.927C-38.7333 355.817 -31.5738 346.43 -21.6666 342.898V336.327L-87.433 270.562C-89.0373 268.966 -89.9333 266.799 -89.9333 264.529V254.426C-99.8405 250.893 -107 241.506 -107 230.396C-107 216.282 -95.5141 204.797 -81.3999 204.797ZM-30.1999 110.931C-25.4981 110.931 -21.6666 107.109 -21.6666 102.398C-21.6666 97.688 -25.4981 93.8651 -30.1999 93.8651C-34.9018 93.8651 -38.7333 97.688 -38.7333 102.398C-38.7333 107.109 -34.9018 110.931 -30.1999 110.931ZM-13.1333 443.726C-8.4314 443.726 -4.59993 439.903 -4.59993 435.193C-4.59993 430.482 -8.4314 426.66 -13.1333 426.66C-17.8351 426.66 -21.6666 430.482 -21.6666 435.193C-21.6666 439.903 -17.8351 443.726 -13.1333 443.726ZM-13.1333 375.46C-8.4314 375.46 -4.59993 371.638 -4.59993 366.927C-4.59993 362.217 -8.4314 358.394 -13.1333 358.394C-17.8351 358.394 -21.6666 362.217 -21.6666 366.927C-21.6666 371.638 -17.8351 375.46 -13.1333 375.46ZM-81.3999 238.929C-76.6981 238.929 -72.8666 235.106 -72.8666 230.396C-72.8666 225.686 -76.6981 221.863 -81.3999 221.863C-86.1018 221.863 -89.9333 225.686 -89.9333 230.396C-89.9333 235.106 -86.1018 238.929 -81.3999 238.929Z" fill="#00B2FF"/>
</svg>
